<?xml version="1.0" encoding="UTF-8"?><svg id="Layer_1" xmlns="http://www.w3.org/2000/svg" viewBox="0 0 1396.25 550"><defs><style>.cls-1{fill:#323232;}.cls-1,.cls-2{stroke-width:0px;}.cls-2{fill:#e65f32;}</style></defs><path class="cls-1" d="M163.71,163.75h83.6c46.41,0,75.02,33.38,75.02,70.25,0,39.74-27.65,73.11-75.02,73.11h-50.86v79.15h-32.74v-222.52ZM244.77,277.24c27.65,0,44.19-18.44,44.19-42.28s-17.17-41.32-44.19-41.32h-48.32v83.61h48.32Z"/><path class="cls-1" d="M657.97,222.56h31.79v20.66c7.63-14.31,24.79-23.52,44.5-23.52,21.94,0,39.74,10.17,50.54,25.43,8.27-10.81,24.48-25.43,52.45-25.43,37.83,0,64.53,27.34,64.53,61.67v104.9h-31.79v-97.27c0-24.48-15.58-39.42-36.87-39.42s-37.51,16.21-37.51,39.42v97.27h-31.79v-97.27c0-24.48-15.26-39.42-36.87-39.42s-37.19,16.21-37.19,39.42v97.27h-31.79v-163.71Z"/><polygon class="cls-2" points="948.17 169.87 948.17 201.79 979.96 188.29 979.96 156.38 948.17 169.87"/><polygon class="cls-1" points="948.17 233 948.17 386.27 979.96 386.27 979.96 233 979.51 219.7 948.17 233"/><polygon class="cls-1" points="447.13 224.86 383.71 251.78 383.71 222.56 351.93 222.56 351.93 386.27 383.71 386.27 383.71 284.23 383.71 283.69 447.13 256.78 447.13 224.86"/><polygon class="cls-1" points="1200.8 164.53 1200.8 386.26 1232.58 386.26 1232.58 151.04 1200.8 164.53"/><path class="cls-1" d="M593.21,332.73c-6.03,13.62-22.41,27.79-47.02,27.79s-46.73-13.67-50.86-44.82h128.74v-14.94c0-43.23-30.2-81.06-78.2-81.06s-82.65,36.56-82.65,84.88,32.74,84.56,82.96,84.56c43.11,0,65.36-27.51,72.41-45.62l-25.39-10.78ZM545.55,247.68c27.97,0,45.14,20.98,45.46,41.32h-94.73c5.4-27.02,25.11-41.32,49.27-41.32Z"/><path class="cls-1" d="M1085.47,219.7c-37.83,0-58.07,22.67-65.83,42.67l25.81,10.95c5.04-11.53,16.81-25.01,39.71-25.01,26.07,0,40.37,17.8,40.37,33.38v1.91l-48.32,3.17c-36.87,2.55-56.9,23.21-56.9,51.82s23.84,50.86,56.58,50.86c20.98,0,40.05-8.9,48.64-21.94v18.76h31.47v-103.31c0-31.15-25.11-63.26-71.52-63.26ZM1126.16,320.47c0,21.3-17.16,41.01-46.09,41.01-15.89,0-27.98-8.9-27.98-23.53,0-15.58,11.76-23.52,27.34-24.47l46.73-3.18v10.17Z"/></svg>