<svg width="254" height="82" viewBox="0 0 254 82" fill="none" xmlns="http://www.w3.org/2000/svg">
<path d="M94.08 53V26.92H103.48C105.32 26.92 107 27.1733 108.52 27.68C110.04 28.16 111.253 28.9867 112.16 30.16C113.067 31.3333 113.52 32.96 113.52 35.04C113.52 36.96 113.093 38.5467 112.24 39.8C111.413 41.0267 110.293 41.9467 108.88 42.56L114.8 53H108.2L103.2 43.6H99.96V53H94.08ZM99.96 38.92H103C104.547 38.92 105.72 38.6 106.52 37.96C107.347 37.2933 107.76 36.32 107.76 35.04C107.76 33.76 107.347 32.8667 106.52 32.36C105.72 31.8533 104.547 31.6 103 31.6H99.96V38.92ZM124.419 39.8L123.779 42.2H129.339L128.739 39.8C128.392 38.4933 128.032 37.1067 127.659 35.64C127.312 34.1733 126.965 32.76 126.619 31.4H126.459C126.139 32.7867 125.805 34.2133 125.459 35.68C125.139 37.12 124.792 38.4933 124.419 39.8ZM114.979 53L123.139 26.92H130.219L138.379 53H132.139L130.539 46.8H122.579L120.979 53H114.979ZM141.228 53V26.92H157.548V31.88H147.108V37.12H155.988V42.04H147.108V48.04H157.948V53H141.228ZM176.47 53L168.07 26.76H171.63L175.83 40.92C176.31 42.4667 176.724 43.92 177.07 45.28C177.444 46.6133 177.884 48.0533 178.39 49.6H178.55C179.03 48.0533 179.457 46.6133 179.83 45.28C180.204 43.92 180.617 42.4667 181.07 40.92L185.27 26.76H188.67L180.35 53H176.47ZM196.229 38.32L194.989 42.32H202.869L201.629 38.32C201.149 36.8533 200.696 35.4 200.269 33.96C199.843 32.4933 199.416 31 198.989 29.48H198.829C198.429 31 198.016 32.4933 197.589 33.96C197.163 35.4 196.709 36.8533 196.229 38.32ZM188.229 53L197.109 26.76H200.869L209.749 53H206.189L203.709 45H194.149L191.629 53H188.229ZM213.467 53V26.76H216.787V50.16H228.267V53H213.467ZM232.92 53V26.76H239.48C243.534 26.76 246.614 27.8933 248.72 30.16C250.827 32.4 251.88 35.6 251.88 39.76C251.88 43.9467 250.827 47.2 248.72 49.52C246.64 51.84 243.614 53 239.64 53H232.92ZM236.24 50.28H239.24C242.307 50.28 244.6 49.36 246.12 47.52C247.667 45.6533 248.44 43.0667 248.44 39.76C248.44 36.4533 247.667 33.92 246.12 32.16C244.6 30.3733 242.307 29.48 239.24 29.48H236.24V50.28Z" fill="black"/>
<path fill-rule="evenodd" clip-rule="evenodd" d="M32.7008 81C18.87 73.838 20.0779 74.8121 7.95561 65.3587C0.218601 58.8277 1.02391 49.662 1.02391 49.662V1H64.3776V49.662C64.3776 49.662 65.1828 58.8276 57.4459 65.3587C45.3236 74.8121 46.5315 73.838 32.7008 81Z" fill="black"/>
<path d="M1.02391 49.662L1.07391 49.6664V49.662V1.05H64.3276V49.662H64.3274L64.3278 49.6664L64.3776 49.662L64.3278 49.6664L64.3278 49.6667L64.3279 49.6679L64.3283 49.6727L64.3298 49.6921C64.3302 49.6983 64.3307 49.7055 64.3313 49.7138C64.3323 49.7289 64.3335 49.7474 64.3348 49.7694C64.3388 49.8376 64.3436 49.9388 64.3471 50.0699C64.354 50.3322 64.3552 50.7145 64.3326 51.1938C64.2873 52.1525 64.1465 53.499 63.7645 55.0492C63.0006 58.1493 61.2724 62.0629 57.4144 65.3198C51.353 70.0468 48.6269 72.1646 45.6876 73.9962C43.3289 75.466 40.8331 76.7514 36.3663 79.052C35.2718 79.6157 34.059 80.2404 32.7008 80.9437C31.3425 80.2404 30.1296 79.6157 29.035 79.0519C24.5684 76.7514 22.0726 75.466 19.714 73.9962C16.7747 72.1646 14.0485 70.0467 7.98712 65.3198C4.12912 62.0629 2.40083 58.1493 1.63693 55.0492C1.25494 53.499 1.11418 52.1525 1.06891 51.1938C1.04628 50.7145 1.04752 50.3322 1.0544 50.0699C1.05784 49.9388 1.06269 49.8376 1.06667 49.7694C1.06866 49.7353 1.07043 49.7094 1.0717 49.6921L1.07319 49.6727L1.07359 49.6679L1.07369 49.6667L1.07371 49.6664L1.02391 49.662Z" stroke="black" stroke-opacity="0.75" stroke-width="0.1"/>
<path fill-rule="evenodd" clip-rule="evenodd" d="M26.3509 77.723C18.8578 73.8391 17.8183 73.0499 7.95571 65.3586C1.64743 60.0335 1.0181 52.958 1.00073 50.5261V50.3112C1.00384 49.8946 1.02407 49.6619 1.02407 49.6619V41.8537H26.3509V77.723L26.3509 77.723ZM39.0259 1H64.3777V29.1788H39.0259V1Z" fill="#ED2939"/>
<path d="M1.07388 49.6662L1.07407 49.6662V49.6619V41.9037H26.3009V77.6408C18.8782 73.7917 17.8161 72.9847 7.98723 65.3198C1.69617 60.0087 1.06808 52.9519 1.05073 50.5259V50.3114C1.05228 50.1039 1.05809 49.9423 1.06351 49.8328C1.06621 49.778 1.06882 49.7362 1.07074 49.7082L1.07304 49.6766L1.07367 49.6687L1.07383 49.6668L1.07387 49.6663L1.07388 49.6662ZM39.0759 1.05H64.3277V29.1287H39.0759V1.05Z" stroke="black" stroke-opacity="0.75" stroke-width="0.1"/>
<path fill-rule="evenodd" clip-rule="evenodd" d="M13.6248 2.84369C10.8365 3.33634 8.66454 5.4507 8.57776 6.43394C8.57776 7.89045 10.7023 9.01791 10.65 9.50484C10.65 10.4808 6.73517 9.07324 6.70465 11.1687C7.07842 13.1508 10.1418 13.973 10.1418 15.3665C10.282 16.58 7.80707 15.2463 7.84936 16.58C8.10321 18.58 10.6833 19.3853 10.65 20.3811C10.7537 21.192 9.41068 20.482 9.51439 21.7832C9.52712 23.3063 10.9795 25.127 13.6249 27.1944C16.2702 25.127 17.7227 23.3062 17.7355 21.7832C17.8391 20.482 16.4961 21.192 16.5998 20.3811C16.5666 19.3853 19.1466 18.58 19.4004 16.58C19.4428 15.2463 16.9678 16.58 17.1081 15.3665C17.1081 13.973 20.1714 13.1508 20.5452 11.1687C20.5147 9.07318 16.5998 10.4807 16.5998 9.50484C16.5475 9.01791 18.6721 7.89039 18.6721 6.43394C18.5853 5.4507 16.4133 3.3364 13.6249 2.84369H13.6248ZM51.1601 43.9577C48.3717 44.4503 46.1998 46.5646 46.113 47.5479C46.113 49.0044 48.2376 50.1319 48.1852 50.6188C48.1852 51.5948 44.2704 50.1872 44.2399 52.2827C44.6137 54.2648 47.677 55.087 47.677 56.4805C47.8173 57.694 45.3423 56.3603 45.3846 57.694C45.6385 59.694 48.2185 60.4993 48.1853 61.4951C48.2889 62.306 46.9459 61.596 47.0496 62.8972C47.0624 64.4203 48.5148 66.241 51.1602 68.3084C53.8055 66.241 55.2579 64.4202 55.2707 62.8972C55.3744 61.596 54.0314 62.306 54.135 61.4951C54.1018 60.4993 56.6818 59.694 56.9357 57.694C56.978 56.3603 54.5031 57.694 54.6433 56.4805C54.6433 55.087 57.7066 54.2648 58.0804 52.2827C58.0499 50.1872 54.135 51.5947 54.135 50.6188C54.0827 50.1319 56.2073 49.0043 56.2073 47.5479C56.1205 46.5646 53.9485 44.4504 51.1602 43.9577H51.1601ZM32.7007 81C30.1226 79.6649 28.0676 78.6129 26.3508 77.723V41.8538H1.02393V29.1788H26.3508V1H39.0258V29.1788H64.3777V41.8538H39.0258V77.7359C37.314 78.6231 35.2666 79.6713 32.7007 80.9999V81Z" fill="white"/>
<path d="M9.56451 21.7828H9.56438C9.57062 22.5288 9.92978 23.3543 10.622 24.2542C11.3084 25.1466 12.3188 26.1076 13.6249 27.1309C14.9309 26.1076 15.9413 25.1465 16.6277 24.2542C17.32 23.3542 17.6792 22.5288 17.6855 21.7828L17.6855 21.7792L17.6856 21.7792C17.7109 21.4618 17.6473 21.2772 17.5491 21.1616C17.4496 21.0446 17.3075 20.9893 17.1542 20.9464C17.1191 20.9366 17.0839 20.9276 17.0487 20.9186L17.0397 20.9163C17.0017 20.9065 16.9637 20.8967 16.9269 20.886C16.8538 20.8648 16.7825 20.8393 16.7218 20.8018C16.6602 20.7638 16.6088 20.7128 16.5773 20.6409C16.5464 20.5704 16.5367 20.4844 16.5497 20.3787C16.5424 20.1093 16.7106 19.8603 16.9519 19.6134C17.1282 19.433 17.3505 19.247 17.5866 19.0495C17.6763 18.9745 17.768 18.8978 17.8599 18.8191C18.5319 18.2439 19.2254 17.5541 19.3505 16.576C19.3552 16.4182 19.3226 16.305 19.2669 16.2227C19.211 16.1401 19.1282 16.0835 19.0233 16.0454C18.81 15.9678 18.5193 15.9706 18.2188 15.9781C18.2044 15.9785 18.19 15.9789 18.1756 15.9793C18.0415 15.9827 17.907 15.9862 17.7813 15.982C17.6422 15.9774 17.5103 15.9634 17.3981 15.9282C17.2854 15.8928 17.1888 15.8348 17.1263 15.7398C17.0641 15.6454 17.0403 15.5215 17.0581 15.3636C17.0591 14.997 17.2611 14.6732 17.5566 14.3667C17.8237 14.0895 18.1739 13.8199 18.537 13.5403C18.5765 13.5099 18.6162 13.4794 18.6559 13.4487C19.0623 13.1349 19.4769 12.8052 19.8133 12.4314C20.1482 12.0592 20.4031 11.6458 20.4951 11.1644C20.4907 10.913 20.4285 10.7172 20.3254 10.5634C20.2215 10.4085 20.0738 10.2931 19.8942 10.207C19.5332 10.0339 19.0503 9.98288 18.5594 9.96687C18.3747 9.96085 18.1904 9.95979 18.012 9.95877C17.9538 9.95844 17.8964 9.95811 17.8397 9.95761C17.6098 9.9556 17.3932 9.95084 17.2068 9.93156C17.0216 9.9124 16.8602 9.8784 16.744 9.81436C16.6852 9.78197 16.6362 9.74096 16.602 9.68871C16.5679 9.6367 16.5503 9.57619 16.5498 9.50743C16.5425 9.42946 16.578 9.3471 16.6321 9.26524C16.6879 9.18096 16.7692 9.08859 16.8657 8.98952C16.9625 8.89018 17.0764 8.7822 17.1981 8.66692L17.2059 8.65956C17.3257 8.54617 17.4531 8.42547 17.581 8.29761C18.1057 7.77269 18.621 7.14076 18.6221 6.43617C18.6009 6.20465 18.4558 5.89818 18.199 5.55754C17.9427 5.21735 17.5791 4.84847 17.1306 4.4941C16.2354 3.78672 15.0061 3.1403 13.6249 2.89446C12.2437 3.14027 11.0144 3.78669 10.1192 4.49407C9.67075 4.84845 9.30717 5.21734 9.05079 5.55753C8.79407 5.89817 8.64893 6.20464 8.62777 6.43616C8.62885 7.14078 9.14414 7.77272 9.66885 8.29763C9.7967 8.42553 9.92422 8.54626 10.044 8.65968L10.0517 8.66694C10.1734 8.78221 10.2873 8.8902 10.3841 8.98952C10.4806 9.0886 10.5619 9.18097 10.6177 9.26525C10.6718 9.3471 10.7073 9.42946 10.6999 9.50743C10.6995 9.5762 10.6819 9.63671 10.6478 9.68872C10.6136 9.74097 10.5646 9.78198 10.5058 9.81438C10.3896 9.87842 10.2282 9.91243 10.0429 9.9316C9.8566 9.95088 9.64003 9.95564 9.41012 9.95765C9.35345 9.95815 9.29597 9.95848 9.23786 9.95881C9.05941 9.95984 8.87507 9.9609 8.69038 9.96692C8.19949 9.98293 7.71664 10.034 7.35559 10.207C7.17606 10.2931 7.02837 10.4085 6.92446 10.5635C6.82137 10.7172 6.75916 10.913 6.75472 11.1644C6.84671 11.6458 7.10166 12.0592 7.43655 12.4314C7.77291 12.8052 8.1875 13.1349 8.59393 13.4488C8.63366 13.4794 8.67333 13.51 8.71284 13.5404C9.07591 13.8199 9.42612 14.0896 9.69328 14.3667C9.98872 14.6732 10.1907 14.997 10.1918 15.3636C10.1918 15.3645 10.1918 15.3655 10.1918 15.3665H10.1418L9.56451 21.7828ZM9.56451 21.7828L9.56423 21.7792M9.56451 21.7828L9.56423 21.7792M9.56423 21.7792C9.53893 21.4618 9.60254 21.2772 9.70075 21.1616C9.80015 21.0446 9.9423 20.9892 10.0956 20.9464C10.1337 20.9358 10.1719 20.9261 10.2101 20.9163C10.2481 20.9065 10.2861 20.8967 10.3229 20.886C10.396 20.8648 10.4673 20.8393 10.528 20.8018C10.5896 20.7638 10.641 20.7128 10.6725 20.6409C10.7034 20.5704 10.7131 20.4844 10.7001 20.3787C10.7074 20.1093 10.5392 19.8603 10.2979 19.6134C10.1217 19.433 9.89926 19.247 9.66318 19.0495C9.57346 18.9745 9.48177 18.8978 9.38987 18.8191C8.71792 18.2439 8.02438 17.5541 7.89926 16.576L9.56423 21.7792ZM47.0997 62.8967L47.0996 62.8967C47.1059 63.6428 47.465 64.4682 48.1573 65.3682C48.8437 66.2606 49.8541 67.2216 51.1602 68.2449C52.4662 67.2216 53.4766 66.2606 54.163 65.3682C54.8553 64.4682 55.2145 63.6428 55.2207 62.8967L55.2208 62.8932L55.2209 62.8932C55.2462 62.5758 55.1825 62.3911 55.0843 62.2756C54.9849 62.1586 54.8428 62.1032 54.6894 62.0604C54.6545 62.0507 54.6196 62.0417 54.5847 62.0328L54.575 62.0303C54.5481 62.0234 54.5212 62.0164 54.4947 62.0092C54.4838 62.0062 54.4729 62.0031 54.4622 62C54.3891 61.9788 54.3177 61.9533 54.257 61.9158C54.1955 61.8778 54.144 61.8268 54.1125 61.7549C54.0817 61.6844 54.0719 61.5984 54.0849 61.4927C54.0777 61.2232 54.2459 60.9742 54.4872 60.7274C54.6634 60.547 54.8858 60.361 55.1219 60.1635C55.2116 60.0885 55.3033 60.0118 55.3952 59.9331C56.0672 59.3578 56.7607 58.6681 56.8858 57.69C56.8904 57.5322 56.8579 57.419 56.8022 57.3367C56.7462 57.2541 56.6634 57.1975 56.5586 57.1594C56.3453 57.0818 56.0546 57.0846 55.754 57.0921L55.7109 57.0933C55.5768 57.0967 55.4423 57.1002 55.3165 57.096C55.1774 57.0914 55.0455 57.0774 54.9333 57.0422C54.8206 57.0068 54.724 56.9488 54.6615 56.8538C54.5993 56.7594 54.5755 56.6355 54.5933 56.4776C54.5943 56.111 54.7963 55.7872 55.0918 55.4807C55.3589 55.2035 55.7092 54.9339 56.0722 54.6543C56.1117 54.6239 56.1514 54.5934 56.1911 54.5627C56.5975 54.2489 57.0121 53.9192 57.3485 53.5454C57.6834 53.1732 57.9383 52.7598 58.0303 52.2784C58.0259 52.027 57.9637 51.8312 57.8606 51.6774C57.7567 51.5225 57.609 51.4071 57.4294 51.321C57.0684 51.1479 56.5855 51.0969 56.0946 51.0809C55.9099 51.0748 55.7255 51.0738 55.547 51.0728C55.4889 51.0724 55.4315 51.0721 55.3749 51.0716C55.145 51.0696 54.9284 51.0648 54.7421 51.0456C54.5568 51.0264 54.3954 50.9924 54.2792 50.9284C54.2204 50.896 54.1714 50.855 54.1372 50.8027C54.1031 50.7507 54.0855 50.6902 54.085 50.6214M47.0997 62.8967L47.677 56.4805H47.727C47.727 56.4795 47.727 56.4786 47.727 56.4776C47.726 56.111 47.524 55.7872 47.2285 55.4807C46.9614 55.2036 46.6112 54.9339 46.2481 54.6544C46.2086 54.624 46.1689 54.5934 46.1292 54.5628C45.7228 54.2489 45.3082 53.9192 44.9718 53.5454C44.6369 53.1732 44.382 52.7598 44.29 52.2784C44.2944 52.027 44.3566 51.8312 44.4597 51.6775C44.5636 51.5225 44.7113 51.4071 44.8909 51.321C45.2519 51.148 45.7348 51.0969 46.2256 51.0809C46.4103 51.0749 46.5947 51.0738 46.7731 51.0728C46.8312 51.0725 46.8887 51.0721 46.9454 51.0717C47.1753 51.0696 47.3919 51.0649 47.5782 51.0456C47.7634 51.0264 47.9248 50.9924 48.0411 50.9284C48.0999 50.896 48.1489 50.855 48.1831 50.8027C48.2171 50.7507 48.2348 50.6902 48.2352 50.6214M47.0997 62.8967L47.0994 62.8932M47.0997 62.8967L47.0994 62.8932M54.085 50.6214C54.0777 50.5434 54.1132 50.4611 54.1673 50.3792C54.2231 50.295 54.3044 50.2026 54.4009 50.1035C54.4977 50.0042 54.6116 49.8962 54.7333 49.7809L54.7409 49.7738C54.8607 49.6603 54.9883 49.5395 55.1162 49.4116C55.6409 48.8866 56.1562 48.2547 56.1573 47.5501C56.1361 47.3186 55.991 47.0121 55.7342 46.6715C55.4779 46.3313 55.1143 45.9624 54.6658 45.6081C53.7706 44.9007 52.5413 44.2543 51.1601 44.0085C49.779 44.2543 48.5496 44.9007 47.6545 45.608C47.206 45.9624 46.8424 46.3313 46.5861 46.6715C46.3293 47.0121 46.1842 47.3186 46.163 47.5501C46.1641 48.2547 46.6794 48.8867 47.2041 49.4116C47.3319 49.5395 47.4594 49.6602 47.5792 49.7736L47.5869 49.7809C47.7087 49.8962 47.8226 50.0042 47.9193 50.1035C48.0158 50.2026 48.0972 50.295 48.1529 50.3792C48.207 50.4611 48.2426 50.5435 48.2352 50.6214M54.085 50.6214C54.0851 50.6223 54.0852 50.6232 54.0853 50.6242L54.135 50.6188H54.085C54.085 50.6197 54.085 50.6205 54.085 50.6214ZM48.2352 50.6214C48.2352 50.6206 48.2352 50.6197 48.2352 50.6188H48.1852L48.2349 50.6242C48.235 50.6233 48.2351 50.6223 48.2352 50.6214ZM47.0994 62.8932C47.0742 62.5758 47.1378 62.3911 47.236 62.2756C47.3354 62.1586 47.4776 62.1032 47.6309 62.0604C47.6659 62.0506 47.7009 62.0417 47.736 62.0327L47.7453 62.0303C47.7833 62.0205 47.8214 62.0107 47.8581 62C47.9312 61.9787 48.0026 61.9533 48.0633 61.9158C48.1248 61.8778 48.1763 61.8268 48.2078 61.7549C48.2387 61.6844 48.2484 61.5984 48.2354 61.4928C48.2426 61.2233 48.0744 60.9743 47.8331 60.7274C47.6569 60.547 47.4345 60.361 47.1984 60.1635C47.1087 60.0885 47.017 60.0118 46.9251 59.9331C46.2532 59.3579 45.5597 58.6681 45.4345 57.6901L47.0994 62.8932ZM26.3508 41.8038H1.07393V29.2288H26.3508H26.4008V29.1787V1.05H38.9758V29.1787V29.2288H39.0258H64.3276V41.8038H39.0258H38.9758V41.8538V77.7055C38.1834 78.1161 37.3199 78.5609 36.3666 79.0518C35.2723 79.6155 34.0597 80.24 32.7007 80.9437C31.3414 80.2398 30.1285 79.6151 29.0338 79.0513C28.0709 78.5554 27.1996 78.1066 26.4008 77.6926V41.8538V41.8038H26.3508Z" stroke="black" stroke-opacity="0.75" stroke-width="0.1"/>
<path fill-rule="evenodd" clip-rule="evenodd" d="M32.7008 81C18.87 73.838 20.0779 74.8121 7.95561 65.3587C0.218601 58.8277 1.02391 49.662 1.02391 49.662V1H64.3776V49.662C64.3776 49.662 65.1828 58.8276 57.4459 65.3587C45.3236 74.8121 46.5315 73.838 32.7008 81Z" stroke="black" stroke-opacity="0.75" stroke-width="0.1" stroke-miterlimit="22.9256"/>
</svg>
