<svg width="226" height="51" viewBox="0 0 226 51" fill="none" xmlns="http://www.w3.org/2000/svg">
<g clip-path="url(#clip0_2475_18446)">
<g clip-path="url(#clip1_2475_18446)">
<path d="M70.6669 36.9558H66.1481L59.3477 28.1684H56.6246V36.9558H52.9006V14.2586H61.6881C66.1481 14.2586 69.5041 16.2752 69.6365 21.2797C69.6365 25.5483 67.1048 27.5649 63.6458 28.0359L70.6669 36.9411V36.9558ZM61.7175 24.9301C64.2787 24.9301 65.9125 23.8409 65.9125 21.3092C65.9125 18.7774 64.1757 17.909 61.7175 17.9826H56.6246V24.9449H61.7175V24.9301Z" fill="#00558F"/>
<path d="M93.2905 17.9384H82.0449V23.7378H92.3926V27.4618H82.0449V33.2318H93.2905V36.9558H78.3209V14.2291H93.2905V17.9531V17.9384Z" fill="#00558F"/>
<path d="M105.729 36.9558H102.078V14.2586H110.866C116.091 14.2586 118.726 18.0415 118.726 21.7213C118.726 25.4012 116.091 29.0957 110.91 29.0957H105.743V36.9558H105.729ZM115.017 21.7949C115.017 19.9108 113.603 17.9237 110.851 17.9826H105.729V25.7103H110.851C113.633 25.7103 115.017 23.6937 115.017 21.7949Z" fill="#00558F"/>
<path d="M139.347 36.9558H125.305V14.2586H128.985V33.2318H139.333V36.9558H139.347Z" fill="#00558F"/>
<path d="M146.722 14.2586H150.402V36.9558H146.722V14.2586Z" fill="#00558F"/>
<path d="M159.41 21.1767C159.41 16.3341 163.767 13.9054 168.124 13.9054C171.421 13.9054 174.733 15.3773 176.396 18.8805L173.069 20.4555C172.083 18.4389 170.022 17.5999 168.065 17.5999C165.592 17.5999 163.09 18.7922 163.09 21.1914V29.8759C163.09 32.3487 165.621 33.5263 168.124 33.5263C170.626 33.5263 173.216 32.334 173.216 29.8759V28.1095H166.843V24.5475H176.911V29.8611C176.911 34.8363 172.554 37.2355 168.124 37.2355C163.693 37.2355 159.41 34.8363 159.41 29.8611V21.1767Z" fill="#00558F"/>
<path d="M200.02 17.9384H188.775V23.7378H199.122V27.4618H188.775V33.2318H200.02V36.9558H185.051V14.2291H200.02V17.9531V17.9384Z" fill="#00558F"/>
<path d="M211.693 24.2972V36.9558H207.969V14.2586H211.885L219.774 27.6532L222.115 32.1721L222.335 32.1132L221.791 27.2411V14.2586H225.515V36.9558H221.187L213.46 23.8115L211.34 19.484L211.119 19.5429L211.693 24.2825V24.2972Z" fill="#00558F"/>
<path d="M5.40154 43.1822V26.7848V17.232C6.40246 17.0553 7.50641 16.9523 8.59564 16.9523C13.1586 16.9523 15.7198 18.4537 15.7198 22.1188C15.7198 25.7839 13.3058 27.0939 9.33161 27.0939C8.19822 27.0939 6.78516 26.9909 5.8284 26.8437C6.12279 28.2568 6.52021 29.6846 6.96179 30.9946C8.78699 36.9412 11.2893 41.9163 13.8799 45.2282C14.1448 45.552 14.4981 45.7875 14.925 45.9789C11.4659 45.8317 8.22766 44.816 5.40154 43.1675V43.1822ZM15.8376 4.74997C9.75847 4.74997 4.28287 7.38473 0.5 11.5945C2.75206 11.2706 5.5193 11.0793 8.08047 11.0793C17.2065 11.0793 22.6968 14.0968 22.6968 21.7655C22.6968 26.4316 20.7097 29.5226 17.6039 31.2154C16.5294 31.7453 15.2488 32.2604 13.9829 32.6579C16.5147 39.3846 23.1678 42.3285 25.7437 43.506C32.1319 40.0028 36.4741 33.2025 36.4741 25.4012C36.4888 13.9937 27.2451 4.74997 15.8376 4.74997Z" fill="url(#paint0_linear_2475_18446)"/>
</g>
</g>
<defs>
<linearGradient id="paint0_linear_2475_18446" x1="18.487" y1="46.0083" x2="18.487" y2="4.74997" gradientUnits="userSpaceOnUse">
<stop offset="0.2" stop-color="#00274F"/>
<stop offset="0.34" stop-color="#002D57"/>
<stop offset="0.57" stop-color="#003E70"/>
<stop offset="0.8" stop-color="#00558F"/>
</linearGradient>
<clipPath id="clip0_2475_18446">
<rect width="225" height="50.4" fill="white" transform="translate(0.5 0.25)"/>
</clipPath>
<clipPath id="clip1_2475_18446">
<rect width="225" height="41.2583" fill="white" transform="translate(0.5 4.74997)"/>
</clipPath>
</defs>
</svg>
